<svg xmlns="http://www.w3.org/2000/svg" viewBox="0 0 720 520" role="img" aria-labelledby="title desc">
  <title id="title">Puppy making a heart gesture</title>
  <desc id="desc">A smiling puppy holding its paws together to make a heart.</desc>
  <rect width="720" height="520" fill="#fff4ee"/>
  <ellipse cx="360" cy="436" rx="190" ry="28" fill="#d8c2ad" opacity=".5"/>
  <circle cx="360" cy="250" r="118" fill="#c98b52"/>
  <ellipse cx="255" cy="238" rx="50" ry="92" fill="#875638" transform="rotate(-24 255 238)"/>
  <ellipse cx="465" cy="238" rx="50" ry="92" fill="#875638" transform="rotate(24 465 238)"/>
  <path d="M258 161c33-39 75-52 124-42" fill="none" stroke="#e8bd8d" stroke-width="18" stroke-linecap="round"/>
  <path d="M462 161c-33-39-75-52-124-42" fill="none" stroke="#e8bd8d" stroke-width="18" stroke-linecap="round"/>
  <circle cx="318" cy="232" r="13" fill="#2f2722"/>
  <circle cx="402" cy="232" r="13" fill="#2f2722"/>
  <circle cx="323" cy="227" r="4" fill="#fff"/>
  <circle cx="407" cy="227" r="4" fill="#fff"/>
  <ellipse cx="360" cy="292" rx="56" ry="43" fill="#f4d7b8"/>
  <path d="M334 288c7-14 45-14 52 0 4 8-8 20-26 20s-30-12-26-20Z" fill="#35271f"/>
  <path d="M360 307c0 21-18 33-39 25" fill="none" stroke="#35271f" stroke-width="8" stroke-linecap="round"/>
  <path d="M360 307c0 21 18 33 39 25" fill="none" stroke="#35271f" stroke-width="8" stroke-linecap="round"/>
  <circle cx="280" cy="276" r="18" fill="#d9a06d" opacity=".8"/>
  <circle cx="440" cy="276" r="18" fill="#d9a06d" opacity=".8"/>
  <path d="M286 355c-44-4-75 28-72 66 2 31 25 48 52 40 30-9 37-47 61-66" fill="#c98b52"/>
  <path d="M434 355c44-4 75 28 72 66-2 31-25 48-52 40-30-9-37-47-61-66" fill="#c98b52"/>
  <path d="M324 378c13-33 59-33 72 0 11-21 49-18 58 10 14 43-48 86-94 111-46-25-108-68-94-111 9-28 47-31 58-10Z" fill="#ef5b73"/>
  <path d="M330 390c10-22 43-22 53 0 9-15 35-12 41 7 9 27-31 57-64 75-33-18-73-48-64-75 6-19 32-22 34-7Z" fill="#ff8da0" opacity=".75"/>
</svg>
