<svg xmlns="http://www.w3.org/2000/svg" viewBox="0 0 640 480" role="img" aria-labelledby="title desc">
  <title id="title">Simple puppy illustration</title>
  <desc id="desc">A simple smiling puppy with floppy ears.</desc>
  <rect width="640" height="480" fill="#f7efe4"/>
  <ellipse cx="320" cy="385" rx="175" ry="28" fill="#decab2" opacity=".55"/>
  <circle cx="320" cy="245" r="118" fill="#c98b52"/>
  <ellipse cx="218" cy="236" rx="48" ry="88" fill="#8b5737" transform="rotate(-22 218 236)"/>
  <ellipse cx="422" cy="236" rx="48" ry="88" fill="#8b5737" transform="rotate(22 422 236)"/>
  <circle cx="278" cy="226" r="13" fill="#2f2722"/>
  <circle cx="362" cy="226" r="13" fill="#2f2722"/>
  <circle cx="283" cy="221" r="4" fill="#fff"/>
  <circle cx="367" cy="221" r="4" fill="#fff"/>
  <ellipse cx="320" cy="283" rx="55" ry="44" fill="#f4d7b8"/>
  <path d="M294 281c7-14 45-14 52 0 4 8-8 20-26 20s-30-12-26-20Z" fill="#35271f"/>
  <path d="M320 301c0 20-18 32-38 25" fill="none" stroke="#35271f" stroke-width="8" stroke-linecap="round"/>
  <path d="M320 301c0 20 18 32 38 25" fill="none" stroke="#35271f" stroke-width="8" stroke-linecap="round"/>
  <circle cx="238" cy="270" r="18" fill="#d9a06d" opacity=".8"/>
  <circle cx="402" cy="270" r="18" fill="#d9a06d" opacity=".8"/>
  <path d="M210 153c28-36 65-49 106-44" fill="none" stroke="#e7bd8d" stroke-width="18" stroke-linecap="round"/>
  <path d="M430 153c-28-36-65-49-106-44" fill="none" stroke="#e7bd8d" stroke-width="18" stroke-linecap="round"/>
</svg>
